<mxfile host="app.diagrams.net" agent="Mozilla/5.0 (Windows NT 10.0; Win64; x64) AppleWebKit/537.36 (KHTML, like Gecko) Chrome/129.0.0.0 Safari/537.36" version="24.7.17">
  <diagram name="PÃ¡gina-1" id="-0zjJFNCTmwo6vkKP5nd">
    <mxGraphModel dx="474" dy="788" grid="1" gridSize="10" guides="1" tooltips="1" connect="1" arrows="1" fold="1" page="1" pageScale="1" pageWidth="827" pageHeight="1169" math="0" shadow="0">
      <root>
        <mxCell id="0" />
        <mxCell id="1" parent="0" />
        <mxCell id="e9VeZsLEOE9HL6Gym7Oc-1" value="detalle" style="rounded=0;whiteSpace=wrap;html=1;" vertex="1" parent="1">
          <mxGeometry x="280" y="400" width="120" height="60" as="geometry" />
        </mxCell>
        <mxCell id="e9VeZsLEOE9HL6Gym7Oc-2" value="fabrica" style="rounded=0;whiteSpace=wrap;html=1;" vertex="1" parent="1">
          <mxGeometry x="520" y="200" width="120" height="60" as="geometry" />
        </mxCell>
        <mxCell id="e9VeZsLEOE9HL6Gym7Oc-11" style="edgeStyle=orthogonalEdgeStyle;rounded=0;orthogonalLoop=1;jettySize=auto;html=1;endArrow=none;endFill=0;" edge="1" parent="1" source="e9VeZsLEOE9HL6Gym7Oc-3" target="e9VeZsLEOE9HL6Gym7Oc-8">
          <mxGeometry relative="1" as="geometry" />
        </mxCell>
        <mxCell id="e9VeZsLEOE9HL6Gym7Oc-3" value="cabecera" style="rounded=0;whiteSpace=wrap;html=1;" vertex="1" parent="1">
          <mxGeometry y="400" width="120" height="60" as="geometry" />
        </mxCell>
        <mxCell id="e9VeZsLEOE9HL6Gym7Oc-4" value="articulo" style="rounded=0;whiteSpace=wrap;html=1;" vertex="1" parent="1">
          <mxGeometry x="280" y="200" width="120" height="60" as="geometry" />
        </mxCell>
        <mxCell id="e9VeZsLEOE9HL6Gym7Oc-9" style="edgeStyle=orthogonalEdgeStyle;rounded=0;orthogonalLoop=1;jettySize=auto;html=1;endArrow=none;endFill=0;" edge="1" parent="1" source="e9VeZsLEOE9HL6Gym7Oc-5" target="e9VeZsLEOE9HL6Gym7Oc-7">
          <mxGeometry relative="1" as="geometry" />
        </mxCell>
        <mxCell id="e9VeZsLEOE9HL6Gym7Oc-5" value="cliente" style="rounded=0;whiteSpace=wrap;html=1;" vertex="1" parent="1">
          <mxGeometry y="200" width="120" height="60" as="geometry" />
        </mxCell>
        <mxCell id="e9VeZsLEOE9HL6Gym7Oc-6" value="provee" style="rhombus;whiteSpace=wrap;html=1;" vertex="1" parent="1">
          <mxGeometry x="160" y="210" width="80" height="40" as="geometry" />
        </mxCell>
        <mxCell id="e9VeZsLEOE9HL6Gym7Oc-10" style="edgeStyle=orthogonalEdgeStyle;rounded=0;orthogonalLoop=1;jettySize=auto;html=1;endArrow=none;endFill=0;" edge="1" parent="1" source="e9VeZsLEOE9HL6Gym7Oc-7" target="e9VeZsLEOE9HL6Gym7Oc-3">
          <mxGeometry relative="1" as="geometry" />
        </mxCell>
        <mxCell id="e9VeZsLEOE9HL6Gym7Oc-7" value="posee" style="rhombus;whiteSpace=wrap;html=1;" vertex="1" parent="1">
          <mxGeometry x="20" y="310" width="80" height="40" as="geometry" />
        </mxCell>
        <mxCell id="e9VeZsLEOE9HL6Gym7Oc-12" style="edgeStyle=orthogonalEdgeStyle;rounded=0;orthogonalLoop=1;jettySize=auto;html=1;endArrow=none;endFill=0;" edge="1" parent="1" source="e9VeZsLEOE9HL6Gym7Oc-8" target="e9VeZsLEOE9HL6Gym7Oc-1">
          <mxGeometry relative="1" as="geometry" />
        </mxCell>
        <mxCell id="e9VeZsLEOE9HL6Gym7Oc-8" value="contiene" style="rhombus;whiteSpace=wrap;html=1;" vertex="1" parent="1">
          <mxGeometry x="160" y="410" width="80" height="40" as="geometry" />
        </mxCell>
      </root>
    </mxGraphModel>
  </diagram>
</mxfile>
